<?xml version="1.0" standalone="no"?>
<!DOCTYPE svg PUBLIC "-//W3C//DTD SVG 20010904//EN"
 "http://www.w3.org/TR/2001/REC-SVG-20010904/DTD/svg10.dtd">
<svg version="1.0" xmlns="http://www.w3.org/2000/svg"
 width="225.000000pt" height="225.000000pt" viewBox="0 0 225.000000 225.000000"
 preserveAspectRatio="xMidYMid meet">
<metadata>
Created by potrace 1.11, written by Peter Selinger 2001-2013
</metadata>
<g transform="translate(0.000000,225.000000) scale(0.100000,-0.100000)"
fill="#000000" stroke="none">
<path d="M606 2100 c-46 -14 -104 -78 -127 -140 -31 -80 -37 -239 -14 -365 9
-53 15 -98 13 -100 -2 -2 -46 -20 -98 -40 -421 -160 -479 -416 -138 -608 46
-26 118 -59 161 -73 42 -14 77 -29 77 -32 0 -4 -7 -39 -15 -77 -22 -106 -20
-278 6 -360 25 -81 76 -138 141 -156 100 -27 280 41 436 166 l82 67 38 -32
c140 -117 239 -174 338 -195 107 -23 166 -6 226 65 47 54 69 125 75 245 5 89
1 135 -23 265 l-6 36 59 18 c154 48 328 169 375 260 26 50 27 129 4 174 -19
36 -84 112 -96 112 -4 0 -32 16 -61 36 -62 42 -152 85 -234 110 -55 18 -57 19
-50 49 27 130 34 294 14 383 -26 122 -109 202 -210 202 -106 0 -269 -78 -387
-185 l-62 -57 -68 55 c-170 139 -353 210 -456 177z m132 -94 c84 -23 195 -91
284 -174 l36 -34 -71 -87 c-40 -47 -82 -100 -94 -117 -20 -28 -30 -32 -85 -38
-35 -4 -101 -14 -146 -22 -46 -9 -85 -14 -87 -12 -2 2 -11 41 -20 86 -24 119
-18 270 14 335 23 48 59 76 96 76 11 1 44 -6 73 -13z m900 -11 c40 -33 61
-100 68 -210 5 -81 -14 -246 -30 -262 -2 -3 -39 2 -82 11 -42 9 -107 19 -144
22 l-68 7 -47 64 c-26 35 -70 89 -98 120 l-51 55 25 22 c15 11 46 37 70 57 53
44 164 106 222 125 65 20 102 17 135 -11z m-400 -392 l20 -28 -128 0 c-146 0
-141 -7 -59 91 l54 64 47 -50 c25 -27 55 -62 66 -77z m124 -175 c19 -29 65
-109 103 -177 l68 -124 -28 -56 c-40 -82 -155 -274 -173 -289 -11 -8 -66 -12
-191 -12 -97 0 -185 3 -196 6 -23 6 -82 94 -169 252 l-57 103 46 86 c26 47 71
126 101 175 l55 88 203 0 203 0 35 -52z m-626 -72 c-33 -58 -64 -105 -68 -105
-7 -1 -70 170 -65 176 6 6 138 31 168 32 26 1 26 0 -35 -103z m841 88 l82 -17
-28 -77 c-46 -124 -39 -124 -109 -6 -34 58 -62 108 -62 111 0 9 31 6 117 -11z
m-1028 -156 c23 -62 48 -124 55 -137 12 -21 9 -33 -19 -100 -18 -42 -42 -107
-54 -144 -26 -77 -13 -75 -142 -26 -146 56 -279 171 -279 242 0 60 61 127 171
191 45 26 193 85 215 86 6 0 30 -51 53 -112z m1327 72 c154 -61 274 -165 274
-235 0 -27 -45 -95 -85 -127 -73 -60 -211 -129 -286 -143 -34 -6 -37 -5 -43
22 -4 15 -27 78 -52 139 l-44 112 50 123 c27 68 50 130 50 138 0 18 40 10 136
-29z m-1104 -523 c17 -26 29 -49 27 -51 -5 -5 -191 22 -197 29 -5 5 15 62 51
148 l20 48 34 -63 c19 -35 49 -85 65 -111z m847 87 c17 -47 31 -89 31 -94 0
-9 -76 -28 -154 -37 l-49 -6 27 44 c15 24 44 74 64 111 20 37 40 68 44 68 3 0
20 -38 37 -86z m79 -259 c8 -37 11 -109 9 -185 -4 -138 -19 -187 -74 -230 -37
-29 -101 -22 -191 20 -67 31 -179 109 -220 153 l-24 25 80 101 c45 55 85 108
90 117 7 12 37 20 118 31 60 7 123 18 139 23 52 15 59 9 73 -55z m-943 31
c104 -15 111 -18 135 -48 14 -18 58 -72 97 -120 l73 -87 -53 -44 c-67 -58
-153 -112 -214 -136 -171 -67 -242 -14 -251 187 -4 82 10 218 26 260 3 10 15
13 41 9 20 -3 86 -13 146 -21z m495 -32 c0 -9 -113 -144 -121 -144 -8 0 -80
80 -111 123 l-19 27 125 0 c69 0 126 -3 126 -6z"/>
<path d="M1032 1299 c-60 -30 -95 -85 -100 -158 -16 -217 270 -292 370 -97 28
55 22 139 -14 194 -52 77 -167 105 -256 61z"/>
</g>
</svg>
